<svg xmlns="http://www.w3.org/2000/svg" viewBox="0 0 652.7 652.4"><title>icon</title><g id="a79c7599-c19f-4bf6-ade8-2eca4da7385a" data-name="Layer 2"><g id="bf06be1c-a79f-437b-acd6-6e601efc435e" data-name="Layer 1"><rect x="0.1" y="0.1" width="652.4" height="652.11" rx="145.2" fill="#ec4d37"/><path d="M394.2,279.7h0c-11,0-21.4-6.3-25.2-16.6-6.8-18.4-21.4-29.4-44.3-29.4s-39.2,10.5-39.1,33.2S300.5,302,345,312.5c61.4,14.1,88.9,42.4,89,87.2,0,52.6-48.1,82.5-103,82.5-48.8.1-85.3-15.7-103.4-47.1-10.5-18.2,2.3-40.9,23.3-40.9h2.7c10.4,0,19.4,6.4,23.9,15.7,9.9,20.3,29.6,30.7,52.6,30.7,25.5,0,45.7-13.7,45.7-35.2,0-23.4-14.6-37.1-55.8-46.8-57-13.7-93-33.5-93-84.8s46.4-81.7,99.7-81.7c47.7-.1,76.8,19.4,91.8,48.6C427.6,258.5,414.2,279.7,394.2,279.7Z" fill="#fff"/><path d="M495.2,349.1l-22.1,22.2a17,17,0,0,0,0,24.1l2.4,2.4a17,17,0,0,0,24.1,0l48.7-48.7a17,17,0,0,0,0-24.1l-48.8-48.7a17,17,0,0,0-24.1,0l-2.4,2.5a17,17,0,0,0,0,24.1L495.2,325A17.1,17.1,0,0,1,495.2,349.1Z" fill="#fff"/><path d="M155.2,349.4l22.1,22.1a17.1,17.1,0,0,1,.1,24.1L175,398a17.2,17.2,0,0,1-24.2.1l-48.7-48.7a17,17,0,0,1,0-24.1l48.6-48.8a17.3,17.3,0,0,1,24.2,0l2.4,2.5a17,17,0,0,1,0,24.1l-22.1,22.1A17.1,17.1,0,0,0,155.2,349.4Z" fill="#fff"/></g></g></svg>