<svg xmlns="http://www.w3.org/2000/svg" viewBox="0 0 941 223"><title>Logo-Asset 1</title><g id="b2977d9f-7cb2-42c6-8700-3bfd59b04c54" data-name="Layer 2"><g id="ff147f3a-f87a-40c3-8a73-6b2b0c0d7812" data-name="Layer 1"><rect width="223" height="222.89" rx="49.6" fill="#ec4d37"/><path d="M134.7,95.6h0a9.2,9.2,0,0,1-8.6-5.7c-2.3-6.3-7.3-10-15.1-10S97.6,83.5,97.6,91.2s5.1,12,20.3,15.6c21,4.8,30.4,14.5,30.4,29.8,0,18-16.4,28.2-35.2,28.2-16.7,0-29.1-5.4-35.3-16.1a9.3,9.3,0,0,1,7.9-14h1a9.1,9.1,0,0,1,8.1,5.4c3.4,7,10.2,10.5,18,10.5s15.6-4.7,15.6-12-4.9-12.7-19-16c-19.5-4.7-31.8-11.5-31.8-29s15.8-27.9,34.1-27.9c16.3-.1,26.2,6.6,31.3,16.6A9.2,9.2,0,0,1,134.7,95.6Z" fill="#fff"/><path d="M169.3,119.3l-7.6,7.6a5.9,5.9,0,0,0,0,8.3l.8.8a6,6,0,0,0,8.3,0l16.6-16.7a5.7,5.7,0,0,0,0-8.2L170.7,94.4a5.9,5.9,0,0,0-8.2,0l-.8.9a5.7,5.7,0,0,0,0,8.2l7.5,7.6A5.8,5.8,0,0,1,169.3,119.3Z" fill="#fff"/><path d="M53,119.4l7.6,7.6a5.7,5.7,0,0,1,0,8.2l-.8.8a5.8,5.8,0,0,1-8.2.1L34.9,119.4a5.7,5.7,0,0,1,0-8.2L51.5,94.5a5.9,5.9,0,0,1,8.3,0l.8.8a5.9,5.9,0,0,1,0,8.3L53,111.2A5.9,5.9,0,0,0,53,119.4Z" fill="#fff"/><path d="M273,146.2l7-15.4c7.4,5.4,18.6,9.2,29.2,9.2,12.1,0,17-4.1,17-9.5,0-16.6-51.4-5.2-51.4-38-.1-15.1,12.1-27.6,37.2-27.6,11.2,0,22.5,2.6,30.8,7.8l-6.3,15.6c-8.3-4.7-16.7-7-24.6-7-12.1,0-16.8,4.6-16.8,10.1,0,16.4,51.5,5.1,51.5,37.6,0,14.8-12.2,27.4-37.5,27.4C295,156.4,280.9,152.3,273,146.2Z" fill="#fff"/><path d="M397.9,151.6c-4,2.9-10,4.3-16,4.3-16.1,0-25.4-8.2-25.4-24.4V71.8h19.7V88.4h17v15.2H376.2v27.7c0,5.8,3.1,9,8.4,9a12.8,12.8,0,0,0,8-2.6Z" fill="#fff"/><path d="M473.1,126.3H421.7c1.9,8.4,9.1,13.6,19.5,13.6,7.2,0,12.3-2.1,17-6.6l10.5,11.4c-6.3,7.2-15.8,11-28,11-23.6,0-38.9-14.7-38.9-35s15.6-35,36.3-35,35.4,13.4,35.4,35.2A49.1,49.1,0,0,1,473.1,126.3Zm-51.7-11.4h33.5c-1.4-8.6-7.8-14.1-16.7-14.1S422.8,106.1,421.4,114.9Z" fill="#fff"/><path d="M544.9,115.9v38.8H526.5v-8.4c-3.7,6.2-10.7,9.5-20.7,9.5-16,0-25.4-8.9-25.5-20.6s8.5-20.4,29.2-20.4h15.7c0-8.5-5.1-13.4-15.7-13.4-7.2,0-14.6,2.4-19.6,6.3L482.8,94c7.5-5.3,18.5-8.3,29.4-8.3C532.9,85.7,544.9,95.3,544.9,115.9Zm-19.7,17.4v-7H511.7c-9.2,0-12.1,3.4-12.1,8s4.1,8.2,11.1,8.2S523,139.5,525.2,133.3Z" fill="#fff"/><path d="M627.7,60.9v93.8H608.9v-7.9c-4.9,6-12.1,8.9-21.2,8.9-19.2,0-34-13.6-34-35s14.7-35,33.9-35c8.4,0,15.5,2.6,20.4,8.2v-33Zm-19.3,59.8c0-11.8-7.6-18.9-17.3-18.8s-17.5,7-17.5,18.8,7.6,18.8,17.5,18.8S608.4,132.4,608.4,120.7Z" fill="#fff"/><path d="M713.4,86.6l-30.6,72.2c-6.6,16.4-16,21.4-28.2,21.4-7,0-14.6-2.3-19-6.2l7.2-14a17.7,17.7,0,0,0,11.1,4.3c5.5,0,8.5-2.4,11.2-8.5l.2-.6L635.8,86.6h20.4l19.1,46.2,19.2-46.2Z" fill="#fff"/><path d="M714,148.3l6.5-14.2c6.1,3.9,15.3,6.6,23.7,6.6s12.5-2.4,12.5-6.2c0-11.1-41.1.3-41.1-26.9,0-12.9,11.6-22,31.4-22,9.4,0,19.8,2.1,26.2,5.9l-6.5,14a38.9,38.9,0,0,0-19.6-5c-8.9,0-12.7,2.8-12.7,6.3,0,11.6,41.1.4,41.1,27.2,0,12.6-11.7,21.6-32.1,21.6C731.9,155.6,720.3,152.5,714,148.3Z" fill="#fff"/><path d="M856.1,86.5v68H837.5v-8.1c-5.2,6-12.8,9.1-21.1,9.1-17.1.1-29.1-9.5-29.1-30.5V86.5H807v35.6c0,11.3,5.1,16.4,13.8,16.4s15.7-5.8,15.7-18.4V86.5Z" fill="#fff"/><path d="M941,120.4c0,21.4-14.8,35.1-33.9,35.1-9.1,0-16.4-2.9-21.3-8.9v7.9H866.9V60.7h19.7v33c5.1-5.6,12-8.3,20.5-8.3C926.2,85.4,941,99.1,941,120.4Zm-20,.1c0-11.8-7.4-18.9-17.3-18.9s-17.3,7.1-17.3,18.9,7.5,18.8,17.3,18.8S921,132.2,921,120.5Z" fill="#fff"/></g></g></svg>